<svg id="my-svg" width="100%" xmlns="http://www.w3.org/2000/svg" xmlns:xlink="http://www.w3.org/1999/xlink" style="max-width: 2215.5px; background-color: rgb(13, 17, 23);" viewBox="-50 -10 2215.5 1992" role="graphics-document document" aria-roledescription="sequence"><rect x="311" y="1047" fill="rgb(31,111,235)" width="564" height="69" class="rect"/><g><rect x="1957.5" y="1906" fill="#eaeaea" stroke="#666" width="158" height="65" name="R2" rx="3" ry="3" class="actor actor-bottom"/><text x="2036.5" y="1938.5" dominant-baseline="central" alignment-baseline="central" class="actor actor-box" style="text-anchor: middle; font-size: 16px; font-weight: 400;"><tspan x="2036.5" dy="0">R2 engram-snapshots</tspan></text></g><g><rect x="1682.5" y="1906" fill="#eaeaea" stroke="#666" width="225" height="65" name="SQL" rx="3" ry="3" class="actor actor-bottom"/><text x="1795" y="1938.5" dominant-baseline="central" alignment-baseline="central" class="actor actor-box" style="text-anchor: middle; font-size: 16px; font-weight: 400;"><tspan x="1795" dy="0">DO SQLite (chunks + manifest)</tspan></text></g><g><rect x="1230" y="1906" fill="#eaeaea" stroke="#666" width="174" height="65" name="Delta" rx="3" ry="3" class="actor actor-bottom"/><text x="1317" y="1938.5" dominant-baseline="central" alignment-baseline="central" class="actor actor-box" style="text-anchor: middle; font-size: 16px; font-weight: 400;"><tspan x="1317" dy="0">W5+W4+E6 delta stack</tspan></text></g><g><rect x="760" y="1906" fill="#eaeaea" stroke="#666" width="160" height="65" name="WASM" rx="3" ry="3" class="actor actor-bottom"/><text x="840" y="1938.5" dominant-baseline="central" alignment-baseline="central" class="actor actor-box" style="text-anchor: middle; font-size: 16px; font-weight: 400;"><tspan x="840" dy="0">rquickjs engine.wasm</tspan></text></g><g><rect x="230.5" y="1906" fill="#eaeaea" stroke="#666" width="231" height="65" name="DO" rx="3" ry="3" class="actor actor-bottom"/><text x="346" y="1938.5" dominant-baseline="central" alignment-baseline="central" class="actor actor-box" style="text-anchor: middle; font-size: 16px; font-weight: 400;"><tspan x="346" dy="0">Rust DurableObject (workers-rs)</tspan></text></g><g/><g><line id="actor5" x1="2036.5" y1="65" x2="2036.5" y2="1906" class="actor-line 200" stroke-width="0.5px" stroke="#999" name="R2" data-et="life-line" data-id="R2"/><g id="root-5" data-et="participant" data-type="participant" data-id="R2"><rect x="1957.5" y="0" fill="#eaeaea" stroke="#666" width="158" height="65" name="R2" rx="3" ry="3" class="actor actor-top"/><text x="2036.5" y="32.5" dominant-baseline="central" alignment-baseline="central" class="actor actor-box" style="text-anchor: middle; font-size: 16px; font-weight: 400;"><tspan x="2036.5" dy="0">R2 engram-snapshots</tspan></text></g></g><g><line id="actor4" x1="1795" y1="65" x2="1795" y2="1906" class="actor-line 200" stroke-width="0.5px" stroke="#999" name="SQL" data-et="life-line" data-id="SQL"/><g id="root-4" data-et="participant" data-type="participant" data-id="SQL"><rect x="1682.5" y="0" fill="#eaeaea" stroke="#666" width="225" height="65" name="SQL" rx="3" ry="3" class="actor actor-top"/><text x="1795" y="32.5" dominant-baseline="central" alignment-baseline="central" class="actor actor-box" style="text-anchor: middle; font-size: 16px; font-weight: 400;"><tspan x="1795" dy="0">DO SQLite (chunks + manifest)</tspan></text></g></g><g><line id="actor3" x1="1317" y1="65" x2="1317" y2="1906" class="actor-line 200" stroke-width="0.5px" stroke="#999" name="Delta" data-et="life-line" data-id="Delta"/><g id="root-3" data-et="participant" data-type="participant" data-id="Delta"><rect x="1230" y="0" fill="#eaeaea" stroke="#666" width="174" height="65" name="Delta" rx="3" ry="3" class="actor actor-top"/><text x="1317" y="32.5" dominant-baseline="central" alignment-baseline="central" class="actor actor-box" style="text-anchor: middle; font-size: 16px; font-weight: 400;"><tspan x="1317" dy="0">W5+W4+E6 delta stack</tspan></text></g></g><g><line id="actor2" x1="840" y1="65" x2="840" y2="1906" class="actor-line 200" stroke-width="0.5px" stroke="#999" name="WASM" data-et="life-line" data-id="WASM"/><g id="root-2" data-et="participant" data-type="participant" data-id="WASM"><rect x="760" y="0" fill="#eaeaea" stroke="#666" width="160" height="65" name="WASM" rx="3" ry="3" class="actor actor-top"/><text x="840" y="32.5" dominant-baseline="central" alignment-baseline="central" class="actor actor-box" style="text-anchor: middle; font-size: 16px; font-weight: 400;"><tspan x="840" dy="0">rquickjs engine.wasm</tspan></text></g></g><g><line id="actor1" x1="346" y1="65" x2="346" y2="1906" class="actor-line 200" stroke-width="0.5px" stroke="#999" name="DO" data-et="life-line" data-id="DO"/><g id="root-1" data-et="participant" data-type="participant" data-id="DO"><rect x="230.5" y="0" fill="#eaeaea" stroke="#666" width="231" height="65" name="DO" rx="3" ry="3" class="actor actor-top"/><text x="346" y="32.5" dominant-baseline="central" alignment-baseline="central" class="actor actor-box" style="text-anchor: middle; font-size: 16px; font-weight: 400;"><tspan x="346" dy="0">Rust DurableObject (workers-rs)</tspan></text></g></g><g><line id="actor0" x1="75" y1="80" x2="75" y2="1906" class="actor-line 200" stroke-width="0.5px" stroke="#999" name="Client" data-et="life-line" data-id="Client"/></g><style>#my-svg{font-size:14px;fill:#e6edf3;}@keyframes edge-animation-frame{from{stroke-dashoffset:0;}}@keyframes dash{to{stroke-dashoffset:0;}}#my-svg .edge-animation-slow{stroke-dasharray:9,5!important;stroke-dashoffset:900;animation:dash 50s linear infinite;stroke-linecap:round;}#my-svg .edge-animation-fast{stroke-dasharray:9,5!important;stroke-dashoffset:900;animation:dash 20s linear infinite;stroke-linecap:round;}#my-svg .error-icon{fill:#161b22;}#my-svg .error-text{fill:#e9e4dd;stroke:#e9e4dd;}#my-svg .edge-thickness-normal{stroke-width:1px;}#my-svg .edge-thickness-thick{stroke-width:3.5px;}#my-svg .edge-pattern-solid{stroke-dasharray:0;}#my-svg .edge-thickness-invisible{stroke-width:0;fill:none;}#my-svg .edge-pattern-dashed{stroke-dasharray:3;}#my-svg .edge-pattern-dotted{stroke-dasharray:2;}#my-svg .marker{fill:#9198a1;stroke:#9198a1;}#my-svg .marker.cross{stroke:#9198a1;}#my-svg svg{font-size:14px;}#my-svg p{margin:0;}#my-svg .actor{stroke:#4493f8;fill:#161b22;stroke-width:1;}#my-svg rect.actor.outer-path[data-look="neo"]{filter:drop-shadow( 1px 2px 2px rgba(185,185,185,1));}#my-svg rect.note[data-look="neo"]{stroke:#4493f8;fill:#1f6feb33;filter:drop-shadow( 1px 2px 2px rgba(185,185,185,1));}#my-svg text.actor&gt;tspan{fill:#e6edf3;stroke:none;}#my-svg .actor-line{stroke:#3d444d;}#my-svg .innerArc{stroke-width:1.5;stroke-dasharray:none;}#my-svg .messageLine0{stroke-width:1.5;stroke-dasharray:none;stroke:#9198a1;}#my-svg .messageLine1{stroke-width:1.5;stroke-dasharray:2,2;stroke:#9198a1;}#my-svg [id$="-arrowhead"] path{fill:#9198a1;stroke:#9198a1;}#my-svg .sequenceNumber{fill:#0d1117;}#my-svg [id$="-sequencenumber"]{fill:#9198a1;}#my-svg [id$="-crosshead"] path{fill:#9198a1;stroke:#9198a1;}#my-svg .messageText{fill:#e6edf3;stroke:none;}#my-svg .labelBox{stroke:#3d444d;fill:#161b22;filter:none;}#my-svg .labelText,#my-svg .labelText&gt;tspan{fill:#e6edf3;stroke:none;}#my-svg .loopText,#my-svg .loopText&gt;tspan{fill:#e6edf3;stroke:none;}#my-svg .sectionTitle,#my-svg .sectionTitle&gt;tspan{fill:#e6edf3;stroke:none;}#my-svg .loopLine{stroke-width:2px;stroke-dasharray:2,2;stroke:#3d444d;fill:#3d444d;}#my-svg .note{stroke:#4493f8;fill:#1f6feb33;}#my-svg .noteText,#my-svg .noteText&gt;tspan{fill:#e6edf3;stroke:none;font-weight:normal;}#my-svg .activation0{fill:#1f6feb33;stroke:#4493f8;}#my-svg .activation1{fill:#1f6feb33;stroke:#4493f8;}#my-svg .activation2{fill:#1f6feb33;stroke:#4493f8;}#my-svg .actorPopupMenu{position:absolute;}#my-svg .actorPopupMenuPanel{position:absolute;fill:#161b22;box-shadow:0px 8px 16px 0px rgba(0,0,0,0.2);filter:drop-shadow(3px 5px 2px rgb(0 0 0 / 0.4));}#my-svg .actor-man circle,#my-svg line{fill:#161b22;stroke-width:2px;}#my-svg g rect.rect{filter:drop-shadow( 1px 2px 2px rgba(185,185,185,1));stroke:#3d444d;}#my-svg .node .neo-node{stroke:#3d444d;}#my-svg [data-look="neo"].node rect,#my-svg [data-look="neo"].cluster rect,#my-svg [data-look="neo"].node polygon{stroke:url(#my-svg-gradient);filter:drop-shadow( 1px 2px 2px rgba(185,185,185,1));}#my-svg [data-look="neo"].node path{stroke:url(#my-svg-gradient);stroke-width:1px;}#my-svg [data-look="neo"].node .outer-path{filter:drop-shadow( 1px 2px 2px rgba(185,185,185,1));}#my-svg [data-look="neo"].node .neo-line path{stroke:#3d444d;filter:none;}#my-svg [data-look="neo"].node circle{stroke:url(#my-svg-gradient);filter:drop-shadow( 1px 2px 2px rgba(185,185,185,1));}#my-svg [data-look="neo"].node circle .state-start{fill:#000000;}#my-svg [data-look="neo"].icon-shape .icon{fill:url(#my-svg-gradient);filter:drop-shadow( 1px 2px 2px rgba(185,185,185,1));}#my-svg [data-look="neo"].icon-shape .icon-neo path{stroke:url(#my-svg-gradient);filter:drop-shadow( 1px 2px 2px rgba(185,185,185,1));}#my-svg :root{--mermaid-font-family:"trebuchet ms",verdana,arial,sans-serif;}</style><g/><defs><symbol id="my-svg-computer" width="24" height="24"><path transform="scale(.5)" d="M2 2v13h20v-13h-20zm18 11h-16v-9h16v9zm-10.228 6l.466-1h3.524l.467 1h-4.457zm14.228 3h-24l2-6h2.104l-1.33 4h18.45l-1.297-4h2.073l2 6zm-5-10h-14v-7h14v7z"/></symbol></defs><defs><symbol id="my-svg-database" fill-rule="evenodd" clip-rule="evenodd"><path transform="scale(.5)" d="M12.258.001l.256.004.255.005.253.008.251.01.249.012.247.015.246.016.242.019.241.02.239.023.236.024.233.027.231.028.229.031.225.032.223.034.22.036.217.038.214.04.211.041.208.043.205.045.201.046.198.048.194.05.191.051.187.053.183.054.18.056.175.057.172.059.168.06.163.061.16.063.155.064.15.066.074.033.073.033.071.034.07.034.069.035.068.035.067.035.066.035.064.036.064.036.062.036.06.036.06.037.058.037.058.037.055.038.055.038.053.038.052.038.051.039.05.039.048.039.047.039.045.04.044.04.043.04.041.04.04.041.039.041.037.041.036.041.034.041.033.042.032.042.03.042.029.042.027.042.026.043.024.043.023.043.021.043.02.043.018.044.017.043.015.044.013.044.012.044.011.045.009.044.007.045.006.045.004.045.002.045.001.045v17l-.001.045-.002.045-.004.045-.006.045-.007.045-.009.044-.011.045-.012.044-.013.044-.015.044-.017.043-.018.044-.02.043-.021.043-.023.043-.024.043-.026.043-.027.042-.029.042-.03.042-.032.042-.033.042-.034.041-.036.041-.037.041-.039.041-.04.041-.041.04-.043.04-.044.04-.045.04-.047.039-.048.039-.05.039-.051.039-.052.038-.053.038-.055.038-.055.038-.058.037-.058.037-.06.037-.06.036-.062.036-.064.036-.064.036-.066.035-.067.035-.068.035-.069.035-.07.034-.071.034-.073.033-.074.033-.15.066-.155.064-.16.063-.163.061-.168.06-.172.059-.175.057-.18.056-.183.054-.187.053-.191.051-.194.05-.198.048-.201.046-.205.045-.208.043-.211.041-.214.04-.217.038-.22.036-.223.034-.225.032-.229.031-.231.028-.233.027-.236.024-.239.023-.241.02-.242.019-.246.016-.247.015-.249.012-.251.01-.253.008-.255.005-.256.004-.258.001-.258-.001-.256-.004-.255-.005-.253-.008-.251-.01-.249-.012-.247-.015-.245-.016-.243-.019-.241-.02-.238-.023-.236-.024-.234-.027-.231-.028-.228-.031-.226-.032-.223-.034-.22-.036-.217-.038-.214-.04-.211-.041-.208-.043-.204-.045-.201-.046-.198-.048-.195-.05-.19-.051-.187-.053-.184-.054-.179-.056-.176-.057-.172-.059-.167-.06-.164-.061-.159-.063-.155-.064-.151-.066-.074-.033-.072-.033-.072-.034-.07-.034-.069-.035-.068-.035-.067-.035-.066-.035-.064-.036-.063-.036-.062-.036-.061-.036-.06-.037-.058-.037-.057-.037-.056-.038-.055-.038-.053-.038-.052-.038-.051-.039-.049-.039-.049-.039-.046-.039-.046-.04-.044-.04-.043-.04-.041-.04-.04-.041-.039-.041-.037-.041-.036-.041-.034-.041-.033-.042-.032-.042-.03-.042-.029-.042-.027-.042-.026-.043-.024-.043-.023-.043-.021-.043-.02-.043-.018-.044-.017-.043-.015-.044-.013-.044-.012-.044-.011-.045-.009-.044-.007-.045-.006-.045-.004-.045-.002-.045-.001-.045v-17l.001-.045.002-.045.004-.045.006-.045.007-.045.009-.044.011-.045.012-.044.013-.044.015-.044.017-.043.018-.044.02-.043.021-.043.023-.043.024-.043.026-.043.027-.042.029-.042.03-.042.032-.042.033-.042.034-.041.036-.041.037-.041.039-.041.04-.041.041-.04.043-.04.044-.04.046-.04.046-.039.049-.039.049-.039.051-.039.052-.038.053-.038.055-.038.056-.038.057-.037.058-.037.06-.037.061-.036.062-.036.063-.036.064-.036.066-.035.067-.035.068-.035.069-.035.07-.034.072-.034.072-.033.074-.033.151-.066.155-.064.159-.063.164-.061.167-.06.172-.059.176-.057.179-.056.184-.054.187-.053.19-.051.195-.05.198-.048.201-.046.204-.045.208-.043.211-.041.214-.04.217-.038.22-.036.223-.034.226-.032.228-.031.231-.028.234-.027.236-.024.238-.023.241-.02.243-.019.245-.016.247-.015.249-.012.251-.01.253-.008.255-.005.256-.004.258-.001.258.001zm-9.258 20.499v.01l.001.021.003.021.004.022.005.021.006.022.007.022.009.023.01.022.011.023.012.023.013.023.015.023.016.024.017.023.018.024.019.024.021.024.022.025.023.024.024.025.052.049.056.05.061.051.066.051.07.051.075.051.079.052.084.052.088.052.092.052.097.052.102.051.105.052.11.052.114.051.119.051.123.051.127.05.131.05.135.05.139.048.144.049.147.047.152.047.155.047.16.045.163.045.167.043.171.043.176.041.178.041.183.039.187.039.19.037.194.035.197.035.202.033.204.031.209.03.212.029.216.027.219.025.222.024.226.021.23.02.233.018.236.016.24.015.243.012.246.01.249.008.253.005.256.004.259.001.26-.001.257-.004.254-.005.25-.008.247-.011.244-.012.241-.014.237-.016.233-.018.231-.021.226-.021.224-.024.22-.026.216-.027.212-.028.21-.031.205-.031.202-.034.198-.034.194-.036.191-.037.187-.039.183-.04.179-.04.175-.042.172-.043.168-.044.163-.045.16-.046.155-.046.152-.047.148-.048.143-.049.139-.049.136-.05.131-.05.126-.05.123-.051.118-.052.114-.051.11-.052.106-.052.101-.052.096-.052.092-.052.088-.053.083-.051.079-.052.074-.052.07-.051.065-.051.06-.051.056-.05.051-.05.023-.024.023-.025.021-.024.02-.024.019-.024.018-.024.017-.024.015-.023.014-.024.013-.023.012-.023.01-.023.01-.022.008-.022.006-.022.006-.022.004-.022.004-.021.001-.021.001-.021v-4.127l-.077.055-.08.053-.083.054-.085.053-.087.052-.09.052-.093.051-.095.05-.097.05-.1.049-.102.049-.105.048-.106.047-.109.047-.111.046-.114.045-.115.045-.118.044-.12.043-.122.042-.124.042-.126.041-.128.04-.13.04-.132.038-.134.038-.135.037-.138.037-.139.035-.142.035-.143.034-.144.033-.147.032-.148.031-.15.03-.151.03-.153.029-.154.027-.156.027-.158.026-.159.025-.161.024-.162.023-.163.022-.165.021-.166.02-.167.019-.169.018-.169.017-.171.016-.173.015-.173.014-.175.013-.175.012-.177.011-.178.01-.179.008-.179.008-.181.006-.182.005-.182.004-.184.003-.184.002h-.37l-.184-.002-.184-.003-.182-.004-.182-.005-.181-.006-.179-.008-.179-.008-.178-.01-.176-.011-.176-.012-.175-.013-.173-.014-.172-.015-.171-.016-.17-.017-.169-.018-.167-.019-.166-.02-.165-.021-.163-.022-.162-.023-.161-.024-.159-.025-.157-.026-.156-.027-.155-.027-.153-.029-.151-.03-.15-.03-.148-.031-.146-.032-.145-.033-.143-.034-.141-.035-.14-.035-.137-.037-.136-.037-.134-.038-.132-.038-.13-.04-.128-.04-.126-.041-.124-.042-.122-.042-.12-.044-.117-.043-.116-.045-.113-.045-.112-.046-.109-.047-.106-.047-.105-.048-.102-.049-.1-.049-.097-.05-.095-.05-.093-.052-.09-.051-.087-.052-.085-.053-.083-.054-.08-.054-.077-.054v4.127zm0-5.654v.011l.001.021.003.021.004.021.005.022.006.022.007.022.009.022.01.022.011.023.012.023.013.023.015.024.016.023.017.024.018.024.019.024.021.024.022.024.023.025.024.024.052.05.056.05.061.05.066.051.07.051.075.052.079.051.084.052.088.052.092.052.097.052.102.052.105.052.11.051.114.051.119.052.123.05.127.051.131.05.135.049.139.049.144.048.147.048.152.047.155.046.16.045.163.045.167.044.171.042.176.042.178.04.183.04.187.038.19.037.194.036.197.034.202.033.204.032.209.03.212.028.216.027.219.025.222.024.226.022.23.02.233.018.236.016.24.014.243.012.246.01.249.008.253.006.256.003.259.001.26-.001.257-.003.254-.006.25-.008.247-.01.244-.012.241-.015.237-.016.233-.018.231-.02.226-.022.224-.024.22-.025.216-.027.212-.029.21-.03.205-.032.202-.033.198-.035.194-.036.191-.037.187-.039.183-.039.179-.041.175-.042.172-.043.168-.044.163-.045.16-.045.155-.047.152-.047.148-.048.143-.048.139-.05.136-.049.131-.05.126-.051.123-.051.118-.051.114-.052.11-.052.106-.052.101-.052.096-.052.092-.052.088-.052.083-.052.079-.052.074-.051.07-.052.065-.051.06-.05.056-.051.051-.049.023-.025.023-.024.021-.025.02-.024.019-.024.018-.024.017-.024.015-.023.014-.023.013-.024.012-.022.01-.023.01-.023.008-.022.006-.022.006-.022.004-.021.004-.022.001-.021.001-.021v-4.139l-.077.054-.08.054-.083.054-.085.052-.087.053-.09.051-.093.051-.095.051-.097.05-.1.049-.102.049-.105.048-.106.047-.109.047-.111.046-.114.045-.115.044-.118.044-.12.044-.122.042-.124.042-.126.041-.128.04-.13.039-.132.039-.134.038-.135.037-.138.036-.139.036-.142.035-.143.033-.144.033-.147.033-.148.031-.15.03-.151.03-.153.028-.154.028-.156.027-.158.026-.159.025-.161.024-.162.023-.163.022-.165.021-.166.02-.167.019-.169.018-.169.017-.171.016-.173.015-.173.014-.175.013-.175.012-.177.011-.178.009-.179.009-.179.007-.181.007-.182.005-.182.004-.184.003-.184.002h-.37l-.184-.002-.184-.003-.182-.004-.182-.005-.181-.007-.179-.007-.179-.009-.178-.009-.176-.011-.176-.012-.175-.013-.173-.014-.172-.015-.171-.016-.17-.017-.169-.018-.167-.019-.166-.02-.165-.021-.163-.022-.162-.023-.161-.024-.159-.025-.157-.026-.156-.027-.155-.028-.153-.028-.151-.03-.15-.03-.148-.031-.146-.033-.145-.033-.143-.033-.141-.035-.14-.036-.137-.036-.136-.037-.134-.038-.132-.039-.13-.039-.128-.04-.126-.041-.124-.042-.122-.043-.12-.043-.117-.044-.116-.044-.113-.046-.112-.046-.109-.046-.106-.047-.105-.048-.102-.049-.1-.049-.097-.05-.095-.051-.093-.051-.09-.051-.087-.053-.085-.052-.083-.054-.08-.054-.077-.054v4.139zm0-5.666v.011l.001.02.003.022.004.021.005.022.006.021.007.022.009.023.01.022.011.023.012.023.013.023.015.023.016.024.017.024.018.023.019.024.021.025.022.024.023.024.024.025.052.05.056.05.061.05.066.051.07.051.075.052.079.051.084.052.088.052.092.052.097.052.102.052.105.051.11.052.114.051.119.051.123.051.127.05.131.05.135.05.139.049.144.048.147.048.152.047.155.046.16.045.163.045.167.043.171.043.176.042.178.04.183.04.187.038.19.037.194.036.197.034.202.033.204.032.209.03.212.028.216.027.219.025.222.024.226.021.23.02.233.018.236.017.24.014.243.012.246.01.249.008.253.006.256.003.259.001.26-.001.257-.003.254-.006.25-.008.247-.01.244-.013.241-.014.237-.016.233-.018.231-.02.226-.022.224-.024.22-.025.216-.027.212-.029.21-.03.205-.032.202-.033.198-.035.194-.036.191-.037.187-.039.183-.039.179-.041.175-.042.172-.043.168-.044.163-.045.16-.045.155-.047.152-.047.148-.048.143-.049.139-.049.136-.049.131-.051.126-.05.123-.051.118-.052.114-.051.11-.052.106-.052.101-.052.096-.052.092-.052.088-.052.083-.052.079-.052.074-.052.07-.051.065-.051.06-.051.056-.05.051-.049.023-.025.023-.025.021-.024.02-.024.019-.024.018-.024.017-.024.015-.023.014-.024.013-.023.012-.023.01-.022.01-.023.008-.022.006-.022.006-.022.004-.022.004-.021.001-.021.001-.021v-4.153l-.077.054-.08.054-.083.053-.085.053-.087.053-.09.051-.093.051-.095.051-.097.05-.1.049-.102.048-.105.048-.106.048-.109.046-.111.046-.114.046-.115.044-.118.044-.12.043-.122.043-.124.042-.126.041-.128.04-.13.039-.132.039-.134.038-.135.037-.138.036-.139.036-.142.034-.143.034-.144.033-.147.032-.148.032-.15.03-.151.03-.153.028-.154.028-.156.027-.158.026-.159.024-.161.024-.162.023-.163.023-.165.021-.166.02-.167.019-.169.018-.169.017-.171.016-.173.015-.173.014-.175.013-.175.012-.177.01-.178.01-.179.009-.179.007-.181.006-.182.006-.182.004-.184.003-.184.001-.185.001-.185-.001-.184-.001-.184-.003-.182-.004-.182-.006-.181-.006-.179-.007-.179-.009-.178-.01-.176-.01-.176-.012-.175-.013-.173-.014-.172-.015-.171-.016-.17-.017-.169-.018-.167-.019-.166-.02-.165-.021-.163-.023-.162-.023-.161-.024-.159-.024-.157-.026-.156-.027-.155-.028-.153-.028-.151-.03-.15-.03-.148-.032-.146-.032-.145-.033-.143-.034-.141-.034-.14-.036-.137-.036-.136-.037-.134-.038-.132-.039-.13-.039-.128-.041-.126-.041-.124-.041-.122-.043-.12-.043-.117-.044-.116-.044-.113-.046-.112-.046-.109-.046-.106-.048-.105-.048-.102-.048-.1-.05-.097-.049-.095-.051-.093-.051-.09-.052-.087-.052-.085-.053-.083-.053-.08-.054-.077-.054v4.153zm8.74-8.179l-.257.004-.254.005-.25.008-.247.011-.244.012-.241.014-.237.016-.233.018-.231.021-.226.022-.224.023-.22.026-.216.027-.212.028-.21.031-.205.032-.202.033-.198.034-.194.036-.191.038-.187.038-.183.04-.179.041-.175.042-.172.043-.168.043-.163.045-.16.046-.155.046-.152.048-.148.048-.143.048-.139.049-.136.05-.131.05-.126.051-.123.051-.118.051-.114.052-.11.052-.106.052-.101.052-.096.052-.092.052-.088.052-.083.052-.079.052-.074.051-.07.052-.065.051-.06.05-.056.05-.051.05-.023.025-.023.024-.021.024-.02.025-.019.024-.018.024-.017.023-.015.024-.014.023-.013.023-.012.023-.01.023-.01.022-.008.022-.006.023-.006.021-.004.022-.004.021-.001.021-.001.021.001.021.001.021.004.021.004.022.006.021.006.023.008.022.01.022.01.023.012.023.013.023.014.023.015.024.017.023.018.024.019.024.02.025.021.024.023.024.023.025.051.05.056.05.06.05.065.051.07.052.074.051.079.052.083.052.088.052.092.052.096.052.101.052.106.052.11.052.114.052.118.051.123.051.126.051.131.05.136.05.139.049.143.048.148.048.152.048.155.046.16.046.163.045.168.043.172.043.175.042.179.041.183.04.187.038.191.038.194.036.198.034.202.033.205.032.21.031.212.028.216.027.22.026.224.023.226.022.231.021.233.018.237.016.241.014.244.012.247.011.25.008.254.005.257.004.26.001.26-.001.257-.004.254-.005.25-.008.247-.011.244-.012.241-.014.237-.016.233-.018.231-.021.226-.022.224-.023.22-.026.216-.027.212-.028.21-.031.205-.032.202-.033.198-.034.194-.036.191-.038.187-.038.183-.04.179-.041.175-.042.172-.043.168-.043.163-.045.16-.046.155-.046.152-.048.148-.048.143-.048.139-.049.136-.05.131-.05.126-.051.123-.051.118-.051.114-.052.11-.052.106-.052.101-.052.096-.052.092-.052.088-.052.083-.052.079-.052.074-.051.07-.052.065-.051.06-.05.056-.05.051-.05.023-.025.023-.024.021-.024.02-.025.019-.024.018-.024.017-.023.015-.024.014-.023.013-.023.012-.023.01-.023.01-.022.008-.022.006-.023.006-.021.004-.022.004-.021.001-.021.001-.021-.001-.021-.001-.021-.004-.021-.004-.022-.006-.021-.006-.023-.008-.022-.01-.022-.01-.023-.012-.023-.013-.023-.014-.023-.015-.024-.017-.023-.018-.024-.019-.024-.02-.025-.021-.024-.023-.024-.023-.025-.051-.05-.056-.05-.06-.05-.065-.051-.07-.052-.074-.051-.079-.052-.083-.052-.088-.052-.092-.052-.096-.052-.101-.052-.106-.052-.11-.052-.114-.052-.118-.051-.123-.051-.126-.051-.131-.05-.136-.05-.139-.049-.143-.048-.148-.048-.152-.048-.155-.046-.16-.046-.163-.045-.168-.043-.172-.043-.175-.042-.179-.041-.183-.04-.187-.038-.191-.038-.194-.036-.198-.034-.202-.033-.205-.032-.21-.031-.212-.028-.216-.027-.22-.026-.224-.023-.226-.022-.231-.021-.233-.018-.237-.016-.241-.014-.244-.012-.247-.011-.25-.008-.254-.005-.257-.004-.26-.001-.26.001z"/></symbol></defs><defs><symbol id="my-svg-clock" width="24" height="24"><path transform="scale(.5)" d="M12 2c5.514 0 10 4.486 10 10s-4.486 10-10 10-10-4.486-10-10 4.486-10 10-10zm0-2c-6.627 0-12 5.373-12 12s5.373 12 12 12 12-5.373 12-12-5.373-12-12-12zm5.848 12.459c.202.038.202.333.001.372-1.907.361-6.045 1.111-6.547 1.111-.719 0-1.301-.582-1.301-1.301 0-.512.77-5.447 1.125-7.445.034-.192.312-.181.343.014l.985 6.238 5.394 1.011z"/></symbol></defs><defs><marker id="my-svg-arrowhead" refX="7.9" refY="5" markerUnits="userSpaceOnUse" markerWidth="12" markerHeight="12" orient="auto-start-reverse"><path d="M -1 0 L 10 5 L 0 10 z"/></marker></defs><defs><marker id="my-svg-crosshead" markerWidth="15" markerHeight="8" orient="auto" refX="4" refY="4.5"><path fill="none" stroke="#000000" stroke-width="1pt" d="M 1,2 L 6,7 M 6,2 L 1,7" style="stroke-dasharray: 0, 0;"/></marker></defs><defs><marker id="my-svg-filled-head" refX="15.5" refY="7" markerWidth="20" markerHeight="28" orient="auto"><path d="M 18,7 L9,13 L14,7 L9,1 Z"/></marker></defs><defs><marker id="my-svg-sequencenumber" refX="15" refY="15" markerWidth="60" markerHeight="40" orient="auto"><circle cx="15" cy="15" r="6"/></marker></defs><defs><marker id="my-svg-solidTopArrowHead" refX="7.9" refY="7.25" markerUnits="userSpaceOnUse" markerWidth="12" markerHeight="12" orient="auto-start-reverse"><path d="M 0 0 L 10 8 L 0 8 z"/></marker></defs><defs><marker id="my-svg-solidBottomArrowHead" refX="7.9" refY="0.75" markerUnits="userSpaceOnUse" markerWidth="12" markerHeight="12" orient="auto-start-reverse"><path d="M 0 0 L 10 0 L 0 8 z"/></marker></defs><defs><marker id="my-svg-stickTopArrowHead" refX="7.5" refY="7" markerUnits="userSpaceOnUse" markerWidth="12" markerHeight="12" orient="auto-start-reverse"><path d="M 0 0 L 7 7" stroke="black" stroke-width="1.5" fill="none"/></marker></defs><defs><marker id="my-svg-stickBottomArrowHead" refX="7.5" refY="0" markerUnits="userSpaceOnUse" markerWidth="12" markerHeight="12" orient="auto-start-reverse"><path d="M 0 7 L 7 0" stroke="black" stroke-width="1.5" fill="none"/></marker></defs><g data-et="note" data-id="i1"><rect x="50" y="75" fill="#EDF2AE" stroke="#666" width="2011.5" height="39" class="note"/><text x="1056" y="80" text-anchor="middle" dominant-baseline="middle" alignment-baseline="middle" class="noteText" dy="1em" style="font-size: 16px; font-weight: 400;"><tspan x="1056">LIVE SESSION — eval + per-cell snapshot</tspan></text></g><g><rect x="341" y="158" fill="#EDF2AE" stroke="#666" width="10" height="830" class="activation0"/></g><g><rect x="835" y="204" fill="#EDF2AE" stroke="#666" width="10" height="42" class="activation0"/></g><g data-et="note" data-id="i8"><rect x="865" y="256" fill="#EDF2AE" stroke="#666" width="427" height="39" class="note"/><text x="1079" y="261" text-anchor="middle" dominant-baseline="middle" alignment-baseline="middle" class="noteText" dy="1em" style="font-size: 16px; font-weight: 400;"><tspan x="1079">heap mutated in place — (WASM linear memory is monotonic)</tspan></text></g><g><rect x="1312" y="341" fill="#EDF2AE" stroke="#666" width="10" height="327" class="activation0"/></g><g data-et="note" data-id="i11"><rect x="1342" y="349" fill="#EDF2AE" stroke="#666" width="428" height="39" class="note"/><text x="1556" y="354" text-anchor="middle" dominant-baseline="middle" alignment-baseline="middle" class="noteText" dy="1em" style="font-size: 16px; font-weight: 400;"><tspan x="1556">admit on QuickJS used heap (not raw buffer), scrub freed pages</tspan></text></g><g data-et="control-structure" data-id="i24"><line x1="331" y1="678" x2="2047.5" y2="678" class="loopLine"/><line x1="2047.5" y1="678" x2="2047.5" y2="944" class="loopLine"/><line x1="331" y1="944" x2="2047.5" y2="944" class="loopLine"/><line x1="331" y1="678" x2="331" y2="944" class="loopLine"/><line x1="331" y1="816" x2="2047.5" y2="816" class="loopLine" style="stroke-dasharray: 3, 3;"/><polygon points="331,678 381,678 381,691 372.6,698 331,698" class="labelBox"/><text x="356" y="691" text-anchor="middle" dominant-baseline="middle" alignment-baseline="middle" class="labelText" style="font-size: 16px; font-weight: 400;">alt</text><text x="1214.25" y="696" text-anchor="middle" class="loopText" style="font-size: 16px; font-weight: 400;"><tspan x="1214.25">[image gz &lt;= 2 MB]</tspan></text><text x="1189.25" y="834" text-anchor="middle" class="sectionTitle" style="font-size: 16px; font-weight: 400;">[image gz &gt; 2 MB]</text></g><g data-et="note" data-id="i27"><rect x="50" y="998" fill="#EDF2AE" stroke="#666" width="2011.5" height="39" class="note"/><text x="1056" y="1003" text-anchor="middle" dominant-baseline="middle" alignment-baseline="middle" class="noteText" dy="1em" style="font-size: 16px; font-weight: 400;"><tspan x="1056">IDLE — DO evicted, in-memory kernel GONE</tspan></text></g><g data-et="note" data-id="i29"><rect x="321" y="1067" fill="#EDF2AE" stroke="#666" width="544" height="39" class="note"/><text x="593" y="1072" text-anchor="middle" dominant-baseline="middle" alignment-baseline="middle" class="noteText" dy="1em" style="font-size: 16px; font-weight: 400;"><tspan x="593">generation N -&gt; N+1 — no source replay</tspan></text></g><g><rect x="341" y="1160" fill="#EDF2AE" stroke="#666" width="10" height="726" class="activation0"/></g><g data-et="note" data-id="i35"><rect x="371" y="1258" fill="#EDF2AE" stroke="#666" width="444" height="39" class="note"/><text x="593" y="1263" text-anchor="middle" dominant-baseline="middle" alignment-baseline="middle" class="noteText" dy="1em" style="font-size: 16px; font-weight: 400;"><tspan x="593">RESTORE guard admits on — recorded used_heap, not raw bytes</tspan></text></g><g data-et="control-structure" data-id="i42"><line x1="331" y1="1307" x2="2047.5" y2="1307" class="loopLine"/><line x1="2047.5" y1="1307" x2="2047.5" y2="1573" class="loopLine"/><line x1="331" y1="1573" x2="2047.5" y2="1573" class="loopLine"/><line x1="331" y1="1307" x2="331" y2="1573" class="loopLine"/><line x1="331" y1="1445" x2="2047.5" y2="1445" class="loopLine" style="stroke-dasharray: 3, 3;"/><polygon points="331,1307 381,1307 381,1320 372.6,1327 331,1327" class="labelBox"/><text x="356" y="1320" text-anchor="middle" dominant-baseline="middle" alignment-baseline="middle" class="labelText" style="font-size: 16px; font-weight: 400;">alt</text><text x="1214.25" y="1325" text-anchor="middle" class="loopText" style="font-size: 16px; font-weight: 400;"><tspan x="1214.25">[manifest -&gt; sqlite]</tspan></text><text x="1189.25" y="1463" text-anchor="middle" class="sectionTitle" style="font-size: 16px; font-weight: 400;">[manifest -&gt; r2]</text></g><g><rect x="835" y="1707" fill="#EDF2AE" stroke="#666" width="10" height="135" class="activation0"/></g><g data-et="note" data-id="i48"><rect x="865" y="1759" fill="#EDF2AE" stroke="#666" width="356" height="39" class="note"/><text x="1043" y="1764" text-anchor="middle" dominant-baseline="middle" alignment-baseline="middle" class="noteText" dy="1em" style="font-size: 16px; font-weight: 400;"><tspan x="1043">live state restored, — NO replay, NO re-fired effects</tspan></text></g><g class="actor-man actor-top" name="Client" data-et="participant" data-type="actor" data-id="Client" style="stroke: rgb(68, 147, 248);"><line id="actor-man-torso0" x1="75" y1="25" x2="75" y2="45"/><line id="actor-man-arms0" x1="57" y1="33" x2="93" y2="33"/><line x1="57" y1="60" x2="75" y2="45"/><line x1="75" y1="45" x2="91" y2="60"/><circle cx="75" cy="10" r="15" width="150" height="65"/><text x="75" y="67.5" dominant-baseline="central" alignment-baseline="central" class="actor actor-man" style="text-anchor: middle; font-size: 16px; font-weight: 400;"><tspan x="75" dy="0">Client (WS / SDK)</tspan></text></g><text x="209" y="129" text-anchor="middle" dominant-baseline="middle" alignment-baseline="middle" class="messageText" dy="1em" style="font-size: 16px; font-weight: 400;">eval(cell)</text><line x1="82" y1="158" x2="342" y2="158" class="messageLine0" data-et="message" data-id="i2" data-from="Client" data-to="DO" stroke-width="2" stroke="none" marker-end="url(#my-svg-arrowhead)" style="fill: none;"/><line x1="75" y1="158" x2="75" y2="158" stroke-width="0" marker-start="url(#my-svg-sequencenumber)"/><text x="75" y="162" font-family="sans-serif" font-size="12px" text-anchor="middle" class="sequenceNumber">1</text><text x="594" y="173" text-anchor="middle" dominant-baseline="middle" alignment-baseline="middle" class="messageText" dy="1em" style="font-size: 16px; font-weight: 400;">run cell on live linear memory</text><line x1="357" y1="202" x2="836" y2="202" class="messageLine0" data-et="message" data-id="i4" data-from="DO" data-to="WASM" stroke-width="2" stroke="none" marker-end="url(#my-svg-arrowhead)" style="fill: none;"/><line x1="342" y1="202" x2="342" y2="202" stroke-width="0" marker-start="url(#my-svg-sequencenumber)"/><text x="342" y="206" font-family="sans-serif" font-size="12px" text-anchor="middle" class="sequenceNumber">2</text><text x="595" y="217" text-anchor="middle" dominant-baseline="middle" alignment-baseline="middle" class="messageText" dy="1em" style="font-size: 16px; font-weight: 400;">result (effects fire ONCE)</text><line x1="841" y1="246" x2="354" y2="246" class="messageLine1" data-et="message" data-id="i6" data-from="WASM" data-to="DO" stroke-width="2" stroke="none" marker-end="url(#my-svg-arrowhead)" style="stroke-dasharray: 3, 3; fill: none;"/><line x1="844" y1="246" x2="844" y2="246" stroke-width="0" marker-start="url(#my-svg-sequencenumber)"/><text x="844" y="250" font-family="sans-serif" font-size="12px" text-anchor="middle" class="sequenceNumber">3</text><text x="832" y="310" text-anchor="middle" dominant-baseline="middle" alignment-baseline="middle" class="messageText" dy="1em" style="font-size: 16px; font-weight: 400;">used-heap admission + arena scrub</text><line x1="357" y1="339" x2="1313" y2="339" class="messageLine0" data-et="message" data-id="i9" data-from="DO" data-to="Delta" stroke-width="2" stroke="none" marker-end="url(#my-svg-arrowhead)" style="fill: none;"/><line x1="342" y1="339" x2="342" y2="339" stroke-width="0" marker-start="url(#my-svg-sequencenumber)"/><text x="342" y="343" font-family="sans-serif" font-size="12px" text-anchor="middle" class="sequenceNumber">4</text><text x="594" y="403" text-anchor="middle" dominant-baseline="middle" alignment-baseline="middle" class="messageText" dy="1em" style="font-size: 16px; font-weight: 400;">dump memory.buffer (+ globals + tables)</text><line x1="357" y1="432" x2="836" y2="432" class="messageLine0" data-et="message" data-id="i12" data-from="DO" data-to="WASM" stroke-width="2" stroke="none" marker-end="url(#my-svg-arrowhead)" style="fill: none;"/><line x1="342" y1="432" x2="342" y2="432" stroke-width="0" marker-start="url(#my-svg-sequencenumber)"/><text x="342" y="436" font-family="sans-serif" font-size="12px" text-anchor="middle" class="sequenceNumber">5</text><text x="597" y="447" text-anchor="middle" dominant-baseline="middle" alignment-baseline="middle" class="messageText" dy="1em" style="font-size: 16px; font-weight: 400;">raw heap image</text><line x1="845" y1="476" x2="354" y2="476" class="messageLine1" data-et="message" data-id="i13" data-from="WASM" data-to="DO" stroke-width="2" stroke="none" marker-end="url(#my-svg-arrowhead)" style="stroke-dasharray: 3, 3; fill: none;"/><line x1="840" y1="476" x2="840" y2="476" stroke-width="0" marker-start="url(#my-svg-sequencenumber)"/><text x="840" y="480" font-family="sans-serif" font-size="12px" text-anchor="middle" class="sequenceNumber">6</text><text x="1322" y="491" text-anchor="middle" dominant-baseline="middle" alignment-baseline="middle" class="messageText" dy="1em" style="font-size: 16px; font-weight: 400;">256B byte-delta vs prior image</text><path d="M 1322,520 C 1382,510 1382,550 1322,540" class="messageLine0" data-et="message" data-id="i14" data-from="Delta" data-to="Delta" stroke-width="2" stroke="none" marker-end="url(#my-svg-arrowhead)" x1="1328" style="fill: none;"/><line x1="1313" y1="520" x2="1313" y2="520" stroke-width="0" marker-start="url(#my-svg-sequencenumber)"/><text x="1313" y="524" font-family="sans-serif" font-size="12px" text-anchor="middle" class="sequenceNumber">7</text><text x="1322" y="565" text-anchor="middle" dominant-baseline="middle" alignment-baseline="middle" class="messageText" dy="1em" style="font-size: 16px; font-weight: 400;">E6 oplog crash-tail + engine-hash</text><path d="M 1322,594 C 1382,584 1382,624 1322,614" class="messageLine0" data-et="message" data-id="i15" data-from="Delta" data-to="Delta" stroke-width="2" stroke="none" marker-end="url(#my-svg-arrowhead)" x1="1328" style="fill: none;"/><line x1="1313" y1="594" x2="1313" y2="594" stroke-width="0" marker-start="url(#my-svg-sequencenumber)"/><text x="1313" y="598" font-family="sans-serif" font-size="12px" text-anchor="middle" class="sequenceNumber">8</text><text x="833" y="639" text-anchor="middle" dominant-baseline="middle" alignment-baseline="middle" class="messageText" dy="1em" style="font-size: 16px; font-weight: 400;">changed chunks only</text><line x1="1318" y1="668" x2="354" y2="668" class="messageLine1" data-et="message" data-id="i16" data-from="Delta" data-to="DO" stroke-width="2" stroke="none" marker-end="url(#my-svg-arrowhead)" style="stroke-dasharray: 3, 3; fill: none;"/><line x1="1321" y1="668" x2="1321" y2="668" stroke-width="0" marker-start="url(#my-svg-sequencenumber)"/><text x="1321" y="672" font-family="sans-serif" font-size="12px" text-anchor="middle" class="sequenceNumber">9</text><text x="1071" y="728" text-anchor="middle" dominant-baseline="middle" alignment-baseline="middle" class="messageText" dy="1em" style="font-size: 16px; font-weight: 400;">write changed ~64KB chunks + manifest (used_heap, kv_json)</text><line x1="357" y1="757" x2="1791" y2="757" class="messageLine0" data-et="message" data-id="i19" data-from="DO" data-to="SQL" stroke-width="2" stroke="none" marker-end="url(#my-svg-arrowhead)" style="fill: none;"/><line x1="342" y1="757" x2="342" y2="757" stroke-width="0" marker-start="url(#my-svg-sequencenumber)"/><text x="342" y="761" font-family="sans-serif" font-size="12px" text-anchor="middle" class="sequenceNumber">10</text><text x="1074" y="772" text-anchor="middle" dominant-baseline="middle" alignment-baseline="middle" class="messageText" dy="1em" style="font-size: 16px; font-weight: 400;">committed (crash-atomic)</text><line x1="1800" y1="801" x2="354" y2="801" class="messageLine1" data-et="message" data-id="i20" data-from="SQL" data-to="DO" stroke-width="2" stroke="none" marker-end="url(#my-svg-arrowhead)" style="stroke-dasharray: 3, 3; fill: none;"/><line x1="1795" y1="801" x2="1795" y2="801" stroke-width="0" marker-start="url(#my-svg-sequencenumber)"/><text x="1795" y="805" font-family="sans-serif" font-size="12px" text-anchor="middle" class="sequenceNumber">11</text><text x="1192" y="861" text-anchor="middle" dominant-baseline="middle" alignment-baseline="middle" class="messageText" dy="1em" style="font-size: 16px; font-weight: 400;">put full image</text><line x1="357" y1="890" x2="2032.5" y2="890" class="messageLine0" data-et="message" data-id="i22" data-from="DO" data-to="R2" stroke-width="2" stroke="none" marker-end="url(#my-svg-arrowhead)" style="fill: none;"/><line x1="342" y1="890" x2="342" y2="890" stroke-width="0" marker-start="url(#my-svg-sequencenumber)"/><text x="342" y="894" font-family="sans-serif" font-size="12px" text-anchor="middle" class="sequenceNumber">12</text><text x="1071" y="905" text-anchor="middle" dominant-baseline="middle" alignment-baseline="middle" class="messageText" dy="1em" style="font-size: 16px; font-weight: 400;">write manifest pointer (r2)</text><line x1="357" y1="934" x2="1791" y2="934" class="messageLine0" data-et="message" data-id="i23" data-from="DO" data-to="SQL" stroke-width="2" stroke="none" marker-end="url(#my-svg-arrowhead)" style="fill: none;"/><line x1="342" y1="934" x2="342" y2="934" stroke-width="0" marker-start="url(#my-svg-sequencenumber)"/><text x="342" y="938" font-family="sans-serif" font-size="12px" text-anchor="middle" class="sequenceNumber">13</text><text x="210" y="959" text-anchor="middle" dominant-baseline="middle" alignment-baseline="middle" class="messageText" dy="1em" style="font-size: 16px; font-weight: 400;">{ok, value preview}</text><line x1="347" y1="988" x2="79" y2="988" class="messageLine1" data-et="message" data-id="i25" data-from="DO" data-to="Client" stroke-width="2" stroke="none" marker-end="url(#my-svg-arrowhead)" style="stroke-dasharray: 3, 3; fill: none;"/><line x1="350" y1="988" x2="350" y2="988" stroke-width="0" marker-start="url(#my-svg-sequencenumber)"/><text x="350" y="992" font-family="sans-serif" font-size="12px" text-anchor="middle" class="sequenceNumber">14</text><text x="209" y="1131" text-anchor="middle" dominant-baseline="middle" alignment-baseline="middle" class="messageText" dy="1em" style="font-size: 16px; font-weight: 400;">ping / eval (cold wake)</text><line x1="82" y1="1160" x2="342" y2="1160" class="messageLine0" data-et="message" data-id="i31" data-from="Client" data-to="DO" stroke-width="2" stroke="none" marker-end="url(#my-svg-arrowhead)" style="fill: none;"/><line x1="75" y1="1160" x2="75" y2="1160" stroke-width="0" marker-start="url(#my-svg-sequencenumber)"/><text x="75" y="1164" font-family="sans-serif" font-size="12px" text-anchor="middle" class="sequenceNumber">15</text><text x="1071" y="1175" text-anchor="middle" dominant-baseline="middle" alignment-baseline="middle" class="messageText" dy="1em" style="font-size: 16px; font-weight: 400;">read manifest (used_heap, engine-hash, kv_json)</text><line x1="357" y1="1204" x2="1791" y2="1204" class="messageLine0" data-et="message" data-id="i33" data-from="DO" data-to="SQL" stroke-width="2" stroke="none" marker-end="url(#my-svg-arrowhead)" style="fill: none;"/><line x1="342" y1="1204" x2="342" y2="1204" stroke-width="0" marker-start="url(#my-svg-sequencenumber)"/><text x="342" y="1208" font-family="sans-serif" font-size="12px" text-anchor="middle" class="sequenceNumber">16</text><text x="1074" y="1219" text-anchor="middle" dominant-baseline="middle" alignment-baseline="middle" class="messageText" dy="1em" style="font-size: 16px; font-weight: 400;">manifest</text><line x1="1800" y1="1248" x2="354" y2="1248" class="messageLine1" data-et="message" data-id="i34" data-from="SQL" data-to="DO" stroke-width="2" stroke="none" marker-end="url(#my-svg-arrowhead)" style="stroke-dasharray: 3, 3; fill: none;"/><line x1="1795" y1="1248" x2="1795" y2="1248" stroke-width="0" marker-start="url(#my-svg-sequencenumber)"/><text x="1795" y="1252" font-family="sans-serif" font-size="12px" text-anchor="middle" class="sequenceNumber">17</text><text x="1071" y="1357" text-anchor="middle" dominant-baseline="middle" alignment-baseline="middle" class="messageText" dy="1em" style="font-size: 16px; font-weight: 400;">read chunks</text><line x1="357" y1="1386" x2="1791" y2="1386" class="messageLine0" data-et="message" data-id="i37" data-from="DO" data-to="SQL" stroke-width="2" stroke="none" marker-end="url(#my-svg-arrowhead)" style="fill: none;"/><line x1="342" y1="1386" x2="342" y2="1386" stroke-width="0" marker-start="url(#my-svg-sequencenumber)"/><text x="342" y="1390" font-family="sans-serif" font-size="12px" text-anchor="middle" class="sequenceNumber">18</text><text x="1074" y="1401" text-anchor="middle" dominant-baseline="middle" alignment-baseline="middle" class="messageText" dy="1em" style="font-size: 16px; font-weight: 400;">chunk rows</text><line x1="1800" y1="1430" x2="354" y2="1430" class="messageLine1" data-et="message" data-id="i38" data-from="SQL" data-to="DO" stroke-width="2" stroke="none" marker-end="url(#my-svg-arrowhead)" style="stroke-dasharray: 3, 3; fill: none;"/><line x1="1795" y1="1430" x2="1795" y2="1430" stroke-width="0" marker-start="url(#my-svg-sequencenumber)"/><text x="1795" y="1434" font-family="sans-serif" font-size="12px" text-anchor="middle" class="sequenceNumber">19</text><text x="1192" y="1490" text-anchor="middle" dominant-baseline="middle" alignment-baseline="middle" class="messageText" dy="1em" style="font-size: 16px; font-weight: 400;">get image</text><line x1="357" y1="1519" x2="2032.5" y2="1519" class="messageLine0" data-et="message" data-id="i40" data-from="DO" data-to="R2" stroke-width="2" stroke="none" marker-end="url(#my-svg-arrowhead)" style="fill: none;"/><line x1="342" y1="1519" x2="342" y2="1519" stroke-width="0" marker-start="url(#my-svg-sequencenumber)"/><text x="342" y="1523" font-family="sans-serif" font-size="12px" text-anchor="middle" class="sequenceNumber">20</text><text x="1195" y="1534" text-anchor="middle" dominant-baseline="middle" alignment-baseline="middle" class="messageText" dy="1em" style="font-size: 16px; font-weight: 400;">image bytes</text><line x1="2041.5" y1="1563" x2="354" y2="1563" class="messageLine1" data-et="message" data-id="i41" data-from="R2" data-to="DO" stroke-width="2" stroke="none" marker-end="url(#my-svg-arrowhead)" style="stroke-dasharray: 3, 3; fill: none;"/><line x1="2036.5" y1="1563" x2="2036.5" y2="1563" stroke-width="0" marker-start="url(#my-svg-sequencenumber)"/><text x="2036.5" y="1567" font-family="sans-serif" font-size="12px" text-anchor="middle" class="sequenceNumber">21</text><text x="832" y="1588" text-anchor="middle" dominant-baseline="middle" alignment-baseline="middle" class="messageText" dy="1em" style="font-size: 16px; font-weight: 400;">reconstruct full image (apply deltas + E6 tail)</text><line x1="357" y1="1617" x2="1313" y2="1617" class="messageLine0" data-et="message" data-id="i43" data-from="DO" data-to="Delta" stroke-width="2" stroke="none" marker-end="url(#my-svg-arrowhead)" style="fill: none;"/><line x1="342" y1="1617" x2="342" y2="1617" stroke-width="0" marker-start="url(#my-svg-sequencenumber)"/><text x="342" y="1621" font-family="sans-serif" font-size="12px" text-anchor="middle" class="sequenceNumber">22</text><text x="835" y="1632" text-anchor="middle" dominant-baseline="middle" alignment-baseline="middle" class="messageText" dy="1em" style="font-size: 16px; font-weight: 400;">coherent raw heap image</text><line x1="1322" y1="1661" x2="354" y2="1661" class="messageLine1" data-et="message" data-id="i44" data-from="Delta" data-to="DO" stroke-width="2" stroke="none" marker-end="url(#my-svg-arrowhead)" style="stroke-dasharray: 3, 3; fill: none;"/><line x1="1317" y1="1661" x2="1317" y2="1661" stroke-width="0" marker-start="url(#my-svg-sequencenumber)"/><text x="1317" y="1665" font-family="sans-serif" font-size="12px" text-anchor="middle" class="sequenceNumber">23</text><text x="594" y="1676" text-anchor="middle" dominant-baseline="middle" alignment-baseline="middle" class="messageText" dy="1em" style="font-size: 16px; font-weight: 400;">new instance + Tier-0 natives at fixed bases</text><line x1="357" y1="1705" x2="836" y2="1705" class="messageLine0" data-et="message" data-id="i45" data-from="DO" data-to="WASM" stroke-width="2" stroke="none" marker-end="url(#my-svg-arrowhead)" style="fill: none;"/><line x1="342" y1="1705" x2="342" y2="1705" stroke-width="0" marker-start="url(#my-svg-sequencenumber)"/><text x="342" y="1709" font-family="sans-serif" font-size="12px" text-anchor="middle" class="sequenceNumber">24</text><text x="592" y="1720" text-anchor="middle" dominant-baseline="middle" alignment-baseline="middle" class="messageText" dy="1em" style="font-size: 16px; font-weight: 400;">blit memory.buffer (+ globals + tables)</text><line x1="357" y1="1749" x2="832" y2="1749" class="messageLine0" data-et="message" data-id="i47" data-from="DO" data-to="WASM" stroke-width="2" stroke="none" marker-end="url(#my-svg-arrowhead)" style="fill: none;"/><line x1="342" y1="1749" x2="342" y2="1749" stroke-width="0" marker-start="url(#my-svg-sequencenumber)"/><text x="342" y="1753" font-family="sans-serif" font-size="12px" text-anchor="middle" class="sequenceNumber">25</text><text x="595" y="1813" text-anchor="middle" dominant-baseline="middle" alignment-baseline="middle" class="messageText" dy="1em" style="font-size: 16px; font-weight: 400;">ready (sqlite-restore / r2-restore)</text><line x1="841" y1="1842" x2="354" y2="1842" class="messageLine1" data-et="message" data-id="i49" data-from="WASM" data-to="DO" stroke-width="2" stroke="none" marker-end="url(#my-svg-arrowhead)" style="stroke-dasharray: 3, 3; fill: none;"/><line x1="844" y1="1842" x2="844" y2="1842" stroke-width="0" marker-start="url(#my-svg-sequencenumber)"/><text x="844" y="1846" font-family="sans-serif" font-size="12px" text-anchor="middle" class="sequenceNumber">26</text><text x="210" y="1857" text-anchor="middle" dominant-baseline="middle" alignment-baseline="middle" class="messageText" dy="1em" style="font-size: 16px; font-weight: 400;">resumed (gen N+1, state intact)</text><line x1="347" y1="1886" x2="79" y2="1886" class="messageLine1" data-et="message" data-id="i51" data-from="DO" data-to="Client" stroke-width="2" stroke="none" marker-end="url(#my-svg-arrowhead)" style="stroke-dasharray: 3, 3; fill: none;"/><line x1="350" y1="1886" x2="350" y2="1886" stroke-width="0" marker-start="url(#my-svg-sequencenumber)"/><text x="350" y="1890" font-family="sans-serif" font-size="12px" text-anchor="middle" class="sequenceNumber">27</text><g class="actor-man actor-bottom" name="Client" style="stroke: rgb(68, 147, 248);"><line id="actor-man-torso5" x1="75" y1="1931" x2="75" y2="1951"/><line id="actor-man-arms5" x1="57" y1="1939" x2="93" y2="1939"/><line x1="57" y1="1966" x2="75" y2="1951"/><line x1="75" y1="1951" x2="91" y2="1966"/><circle cx="75" cy="1916" r="15" width="150" height="65"/><text x="75" y="1973.5" dominant-baseline="central" alignment-baseline="central" class="actor actor-man" style="text-anchor: middle; font-size: 16px; font-weight: 400;"><tspan x="75" dy="0">Client (WS / SDK)</tspan></text></g></svg>